<svg height="48" width="48" xmlns="http://www.w3.org/2000/svg" xmlns:xlink="http://www.w3.org/1999/xlink"><defs><path id="a" d="M24 10c.552 0 1 .44 1 .984v1.032c0 .543-.448.984-1 .984s-1-.44-1-.984v-1.032A.992.992 0 0 1 24 10zm7 1.876a.992.992 0 0 1 .374 1.352l-.516.894a.992.992 0 0 1-1.358.352.992.992 0 0 1-.374-1.352l.516-.894A.992.992 0 0 1 31 11.876zM36.124 17a.992.992 0 0 1-.352 1.358l-.894.516a.992.992 0 0 1-1.352-.374.992.992 0 0 1 .352-1.358l.894-.516a.992.992 0 0 1 1.352.374zM38 24c0 .552-.44 1-.984 1h-1.032c-.543 0-.984-.448-.984-1s.44-1 .984-1h1.032c.543 0 .984.448.984 1zm-1.876 7a.992.992 0 0 1-1.352.374l-.894-.516a.992.992 0 0 1-.352-1.358.992.992 0 0 1 1.352-.374l.894.516c.47.272.628.88.352 1.358zM31 36.124a.992.992 0 0 1-1.358-.352l-.516-.894a.992.992 0 0 1 .374-1.352.992.992 0 0 1 1.358.352l.516.894A.992.992 0 0 1 31 36.124zM24 38c-.552 0-1-.44-1-.984v-1.032c0-.543.448-.984 1-.984s1 .44 1 .984v1.032A.992.992 0 0 1 24 38zm-7-1.876a.992.992 0 0 1-.374-1.352l.516-.894a.992.992 0 0 1 1.358-.352.992.992 0 0 1 .374 1.352l-.516.894a.992.992 0 0 1-1.358.352zM11.876 31a.992.992 0 0 1 .352-1.358l.894-.516a.992.992 0 0 1 1.352.374.992.992 0 0 1-.352 1.358l-.894.516A.992.992 0 0 1 11.876 31zM10 24c0-.552.44-1 .984-1h1.032c.543 0 .984.448.984 1s-.44 1-.984 1h-1.032A.992.992 0 0 1 10 24zm1.876-7a.992.992 0 0 1 1.352-.374l.894.516c.47.272.628.88.352 1.358a.992.992 0 0 1-1.352.374l-.894-.516A.992.992 0 0 1 11.876 17zM17 11.876a.992.992 0 0 1 1.358.352l.516.894a.992.992 0 0 1-.374 1.352.992.992 0 0 1-1.358-.352l-.516-.894A.992.992 0 0 1 17 11.876zM34 24c0 5.523-4.477 10-10 10s-10-4.477-10-10 4.477-10 10-10 10 4.477 10 10z"/></defs><g fill="none" fill-rule="evenodd"><use fill="#f1a031" xlink:href="#a"/><use fill="#fbb327" xlink:href="#a"/><use fill="#ffb526" xlink:href="#a"/></g></svg>