<svg height="48" width="48" xmlns="http://www.w3.org/2000/svg" xmlns:xlink="http://www.w3.org/1999/xlink"><defs><path id="a" d="M28 7c.552 0 1 .44 1 .984v1.032c0 .543-.448.984-1 .984s-1-.44-1-.984V7.984A.992.992 0 0 1 28 7zm9 13a9 9 0 1 1-18 0 9 9 0 1 1 18 0zM34.5 8.742a.992.992 0 0 1 .374 1.352l-.516.894A.992.992 0 0 1 33 11.34a.992.992 0 0 1-.374-1.352l.516-.894a.992.992 0 0 1 1.358-.352zm4.758 4.758a.992.992 0 0 1-.352 1.358l-.894.516A.992.992 0 0 1 36.66 15a.992.992 0 0 1 .352-1.358l.894-.516a.992.992 0 0 1 1.352.374zM41 20c0 .552-.44 1-.984 1h-1.032c-.543 0-.984-.448-.984-1s.44-1 .984-1h1.032c.543 0 .984.448.984 1zm-1.742 6.5a.992.992 0 0 1-1.352.374l-.894-.516A.992.992 0 0 1 36.66 25a.992.992 0 0 1 1.352-.374l.894.516c.47.272.628.88.352 1.358zM34.5 31.258a.992.992 0 0 1-1.358-.352l-.516-.894A.992.992 0 0 1 33 28.66a.992.992 0 0 1 1.358.352l.516.894a.992.992 0 0 1-.374 1.352zM28 33c-.552 0-1-.44-1-.984v-1.032c0-.543.448-.984 1-.984s1 .44 1 .984v1.032A.992.992 0 0 1 28 33zm-6.5-1.742a.992.992 0 0 1-.374-1.352l.516-.894A.992.992 0 0 1 23 28.66a.992.992 0 0 1 .374 1.352l-.516.894a.992.992 0 0 1-1.358.352zM16.742 26.5a.992.992 0 0 1 .352-1.358l.894-.516A.992.992 0 0 1 19.34 25a.992.992 0 0 1-.352 1.358l-.894.516a.992.992 0 0 1-1.352-.374zM15 20c0-.552.44-1 .984-1h1.032c.543 0 .984.448.984 1s-.44 1-.984 1h-1.032A.992.992 0 0 1 15 20zm1.742-6.5a.992.992 0 0 1 1.352-.374l.894.516c.47.272.628.88.352 1.358a.992.992 0 0 1-1.352.374l-.894-.516a.992.992 0 0 1-.352-1.358zM21.5 8.742a.992.992 0 0 1 1.358.352l.516.894A.992.992 0 0 1 23 11.34a.992.992 0 0 1-1.358-.352l-.516-.894a.992.992 0 0 1 .374-1.352z"/></defs><g fill="none" fill-rule="evenodd"><use fill="#f1a031" xlink:href="#a"/><use fill="#fbb327" xlink:href="#a"/><use fill="#ffb526" xlink:href="#a"/><path d="M20 38a1 1 0 1 1 0 2h-2a1 1 0 1 1 0-2zm11 0a1 1 0 1 1 0 2h-6a1 1 0 1 1 0-2zm10.5-9a1.5 1.5 0 0 1 0 3H32a1 1 0 1 0 0 2h4a1 1 0 1 1 0 2H13a1 1 0 1 1 0-2h3a1 1 0 1 0 0-2H6.5a1.5 1.5 0 1 1 0-3H12a1 1 0 1 0 0-2H9.5a1.5 1.5 0 1 1 0-3h31a1.5 1.5 0 0 1 0 3H36a1 1 0 1 0 0 2z" fill="#ddd"/></g></svg>