<svg height="48" width="48" xmlns="http://www.w3.org/2000/svg"><g fill="none" fill-rule="evenodd"><path d="M38.308 18.256c-2.172.927-4.782.487-6.575-1.334a6.282 6.282 0 0 1-1.31-6.834c.284-.67.054-1.098-.678-1.086a8.5 8.5 0 0 0-2.084.478 8.54 8.54 0 0 0-1.617.804c-.026.017-.053.031-.079.048a8.332 8.332 0 0 0-.65.473c-.041.033-.085.062-.126.096-.245.201-.48.417-.706.65-3.396 3.502-3.336 9.193.132 12.712 3.468 3.52 9.03 3.534 12.426.033a8.55 8.55 0 0 0 .628-.728c.034-.043.062-.087.094-.131.162-.218.317-.439.457-.668l.045-.08a8.86 8.86 0 0 0 .774-1.661 9.065 9.065 0 0 0 .448-2.107c.008-.764-.423-.998-1.09-.683a.204.204 0 0 1-.089.018z" fill="#ffb526"/><path d="M33.851 25c-.497-1.872-2.188-3.25-4.196-3.25-.412 0-.81.058-1.188.166C27.098 19.015 24.09 17 20.6 17c-4.735 0-8.581 3.707-8.654 8.306A7 7 0 0 0 14 39h20a7 7 0 0 0 0-14z" fill="#ddd"/></g></svg>