<svg height="48" width="48" xmlns="http://www.w3.org/2000/svg"><g fill="none" fill-rule="evenodd"><path d="M24.75 25.5a.75.75 0 0 1 .275 1.025l-6.25 10.825a.75.75 0 0 1-1.3-.75l6.25-10.825a.75.75 0 0 1 1.025-.275zm4 0a.75.75 0 0 1 .275 1.025l-6.25 10.825a.75.75 0 0 1-1.3-.75l6.25-10.825a.75.75 0 0 1 1.025-.275zm-12 0a.75.75 0 0 1 .275 1.025l-6.25 10.825a.75.75 0 0 1-1.3-.75l6.25-10.825a.75.75 0 0 1 1.025-.275zm15.866 0a.75.75 0 0 1 .275 1.025L26.64 37.35a.75.75 0 0 1-1.3-.75l6.25-10.825a.75.75 0 0 1 1.025-.275zm4 0a.75.75 0 0 1 .275 1.025L30.64 37.35a.75.75 0 0 1-1.3-.75l6.25-10.825a.75.75 0 0 1 1.025-.275zm-15.866 0a.75.75 0 0 1 .275 1.025l-6.25 10.825a.75.75 0 0 1-1.3-.75l6.25-10.825a.75.75 0 0 1 1.025-.275z" fill="#66abff"/><path d="M33.851 17c-.497-1.872-2.188-3.25-4.196-3.25-.412 0-.81.058-1.188.166C27.098 11.015 24.09 9 20.6 9c-4.735 0-8.581 3.707-8.654 8.306A7 7 0 0 0 14 31h20a7 7 0 0 0 0-14z" fill="#ddd"/></g></svg>